<svg width="160" height="53" fill="none" xmlns="http://www.w3.org/2000/svg"><path d="M147.257 0H11.285c-.414 0-.815.013-1.23.013-.896.027-1.792.08-2.674.239a9.071 9.071 0 00-2.54.835A8.419 8.419 0 002.673 2.65a8.05 8.05 0 00-1.578 2.147 8.876 8.876 0 00-.842 2.517c-.16.874-.214 1.762-.24 2.65 0 .41-.014.822-.014 1.219v30.621c0 .41.013.808.027 1.219.026.887.08 1.775.24 2.65.16.887.415 1.722.843 2.517.4.795.936 1.51 1.578 2.134a8.116 8.116 0 002.166 1.563 9.07 9.07 0 002.54.835c.883.159 1.792.212 2.675.238.4.027.802.04 1.216.04H148.7c.401 0 .829 0 1.23-.013.896-.027 1.792-.08 2.675-.239a9.3 9.3 0 002.554-.834 8.341 8.341 0 002.166-1.564 8.523 8.523 0 001.578-2.133 8.49 8.49 0 00.829-2.518c.16-.874.214-1.762.254-2.65V41.83c.013-.477.013-.954.013-1.444V12.64c0-.49 0-.967-.013-1.444V9.977c-.027-.888-.081-1.775-.254-2.65a8.49 8.49 0 00-.829-2.517 8.697 8.697 0 00-1.578-2.147A8.76 8.76 0 00155.16 1.1a9.3 9.3 0 00-2.554-.835c-.883-.159-1.779-.212-2.675-.239-.401 0-.829-.013-1.23-.013C148.233 0 147.739 0 147.257 0z" fill="#B7B7B7"/><path d="M11.287 51.847c-.402 0-.803 0-1.204-.013-.749-.027-1.631-.066-2.5-.212a7.93 7.93 0 01-2.22-.729 7.235 7.235 0 01-1.872-1.351 7.26 7.26 0 01-1.364-1.855 7.225 7.225 0 01-.722-2.2c-.16-.888-.2-1.802-.227-2.49-.013-.279-.013-1.206-.013-1.206V11.183s.013-.914.013-1.18c.027-.688.067-1.602.227-2.477a7.49 7.49 0 01.736-2.2 7.496 7.496 0 011.363-1.854 7.085 7.085 0 011.86-1.352 7.684 7.684 0 012.205-.715c.91-.173 1.819-.212 2.514-.226l1.204-.013h137.416l1.216.013c.682.014 1.605.053 2.487.212.803.146 1.538.371 2.233.729a7.5 7.5 0 013.223 3.207c.347.675.575 1.39.722 2.186.16.835.2 1.696.227 2.504v1.18c.014.503.014.967.014 1.444v27.732c0 .477 0 .954-.014 1.43v1.233c-.027.782-.08 1.643-.227 2.451a7.456 7.456 0 01-.722 2.213 7.195 7.195 0 01-1.364 1.842 6.938 6.938 0 01-1.872 1.351 8.016 8.016 0 01-2.233.729c-.856.159-1.738.199-2.5.212-.388.013-.803.013-1.204.013H11.286z" fill="#000001"/><path d="M33.121 26.898c-.04-3.644 3.009-5.42 3.156-5.499-1.725-2.491-4.4-2.835-5.335-2.862-2.247-.238-4.426 1.325-5.563 1.325-1.163 0-2.928-1.312-4.827-1.272-2.447.04-4.733 1.444-5.976 3.617-2.581 4.439-.656 10.958 1.818 14.549 1.244 1.762 2.688 3.723 4.586 3.644 1.859-.08 2.554-1.166 4.787-1.166 2.22 0 2.862 1.166 4.8 1.126 1.993-.027 3.25-1.763 4.44-3.538 1.43-2.014 2.005-4.002 2.032-4.094-.067-.014-3.878-1.458-3.918-5.83zm-3.651-10.72c1.002-1.232 1.684-2.915 1.484-4.624-1.445.066-3.25.994-4.293 2.2-.922 1.06-1.738 2.809-1.524 4.452 1.618.119 3.29-.809 4.332-2.028zM56.56 35.96h-6.325l-1.524 4.453h-2.674l5.99-16.457h2.781l5.99 16.457h-2.727L56.56 35.96zm-5.67-2.053h5.015l-2.474-7.221h-.067l-2.473 7.22zm22.864.503c0 3.723-2.019 6.122-5.054 6.122-1.725 0-3.089-.769-3.81-2.094h-.054v5.936h-2.487V28.408h2.407v2h.04c.695-1.285 2.166-2.12 3.85-2.12 3.09 0 5.108 2.399 5.108 6.122zm-2.553 0c0-2.425-1.27-4.028-3.196-4.028-1.899 0-3.182 1.63-3.182 4.028 0 2.412 1.283 4.041 3.182 4.041 1.925 0 3.196-1.59 3.196-4.04zm15.874 0c0 3.723-2.019 6.122-5.054 6.122-1.725 0-3.089-.769-3.811-2.094h-.053v5.936h-2.474V28.408h2.407v2h.04c.695-1.285 2.166-2.12 3.85-2.12 3.076 0 5.095 2.399 5.095 6.122zm-2.554 0c0-2.425-1.27-4.028-3.195-4.028-1.9 0-3.183 1.63-3.183 4.028 0 2.412 1.284 4.041 3.183 4.041 1.938 0 3.195-1.59 3.195-4.04zm11.362 1.418c.188 1.63 1.779 2.703 3.972 2.703 2.099 0 3.597-1.073 3.597-2.544 0-1.272-.91-2.04-3.062-2.57l-2.153-.517c-3.049-.729-4.466-2.147-4.466-4.439 0-2.835 2.5-4.783 6.044-4.783 3.503 0 5.91 1.947 5.99 4.783h-2.514c-.147-1.643-1.524-2.637-3.516-2.637-1.993 0-3.37 1.007-3.37 2.465 0 1.166.87 1.841 3.008 2.371l1.832.451c3.41.795 4.827 2.16 4.827 4.558 0 3.074-2.473 5.009-6.404 5.009-3.678 0-6.165-1.882-6.325-4.863h2.54v.013zm15.566-10.255v2.835h2.3v1.948h-2.3v6.612c0 1.033.455 1.51 1.471 1.51.254 0 .655-.04.816-.053v1.935c-.281.066-.829.119-1.377.119-2.447 0-3.41-.914-3.41-3.233v-6.877h-1.765v-1.947h1.765v-2.85h2.5zm3.622 8.837c0-3.776 2.247-6.148 5.737-6.148 3.516 0 5.736 2.372 5.736 6.148 0 3.79-2.22 6.148-5.736 6.148-3.504 0-5.737-2.358-5.737-6.148zm8.959 0c0-2.583-1.203-4.12-3.209-4.12-2.006 0-3.209 1.537-3.209 4.12 0 2.597 1.19 4.121 3.209 4.121s3.209-1.524 3.209-4.12zm4.589-6.002h2.367v2.04h.054c.374-1.35 1.484-2.172 2.914-2.172.362 0 .656.053.856.093v2.305c-.2-.08-.628-.146-1.11-.146-1.604 0-2.594 1.074-2.594 2.756V40.4h-2.487V28.408zm17.636 8.48c-.334 2.173-2.473 3.67-5.214 3.67-3.517 0-5.71-2.332-5.71-6.095s2.193-6.2 5.603-6.2c3.343 0 5.455 2.278 5.455 5.922v.848h-8.544v.146c0 2.053 1.297 3.392 3.263 3.392 1.377 0 2.46-.65 2.794-1.683h2.353zm-8.397-3.59h6.057c-.053-1.843-1.243-3.048-2.968-3.048-1.711.013-2.955 1.245-3.089 3.047zM49.125 14.906h1.07c.882 0 1.51-.517 1.51-1.259 0-.729-.547-1.206-1.497-1.206-.936 0-1.537.464-1.604 1.233h-1.177c.08-1.431 1.15-2.319 2.821-2.319 1.565 0 2.675.874 2.675 2.12 0 .875-.589 1.617-1.445 1.802v.093c1.03.106 1.779.808 1.779 1.908 0 1.351-1.297 2.345-2.982 2.345-1.738 0-2.928-.928-2.995-2.345h1.19c.067.755.776 1.245 1.805 1.245 1.03 0 1.712-.543 1.712-1.325 0-.782-.642-1.272-1.752-1.272h-1.096v-1.02h-.014zm5.468 2.875c0-1.073.802-1.696 2.233-1.775l1.63-.093v-.517c0-.636-.414-.98-1.23-.98-.668 0-1.123.238-1.256.662h-1.15c.12-1.02 1.096-1.682 2.46-1.682 1.511 0 2.367.741 2.367 2v4.081h-1.15v-.835h-.094c-.36.597-1.016.941-1.805.941-1.163-.013-2.005-.702-2.005-1.802zm3.864-.503v-.504l-1.471.093c-.829.053-1.203.331-1.203.861 0 .543.468.848 1.11.848.909 0 1.564-.556 1.564-1.298zm4.346-2.783v4.969h-1.19v-5.962h3.957v.993h-2.767zm9.975 1.988c0 1.895-.963 3.087-2.487 3.087-.856 0-1.537-.371-1.858-1.007h-.094v2.889h-1.19v-7.95h1.15v.98h.093c.362-.676 1.07-1.086 1.886-1.086 1.537.013 2.5 1.192 2.5 3.087zm-1.217 0c0-1.259-.601-2.027-1.604-2.027-1.003 0-1.631.781-1.631 2.027 0 1.245.628 2.027 1.618 2.027 1.016 0 1.617-.755 1.617-2.027zm2.795 5.127v-1.02c.093.014.28.027.387.027.562 0 .883-.226 1.084-.835l.093-.291-2.18-5.99h1.298l1.51 4.744h.094l1.511-4.744h1.257l-2.246 6.215c-.508 1.457-1.084 1.921-2.314 1.921-.093 0-.374-.013-.494-.027zm5.976-3.829h1.177c.12.53.615.795 1.31.795.79 0 1.284-.344 1.284-.887 0-.57-.441-.849-1.284-.849h-.896v-.914h.883c.722 0 1.083-.278 1.083-.768 0-.438-.348-.769-1.083-.769-.669 0-1.15.279-1.23.756h-1.15c.12-1.06 1.016-1.75 2.367-1.75 1.43 0 2.246.636 2.246 1.644a1.23 1.23 0 01-.95 1.219v.092c.776.186 1.177.676 1.177 1.338 0 1.14-.976 1.882-2.46 1.882-1.297.013-2.367-.583-2.474-1.789zm6.675 1.696v-5.962h1.176v4.107h.094l2.781-4.107h1.177v5.962h-1.177v-4.12h-.093l-2.782 4.12h-1.176zm11.71-4.982H96.82v4.969h-1.19v-4.969h-1.9v-.993h4.988v.993zm6.392 3.365c-.267 1.074-1.23 1.723-2.607 1.723-1.725 0-2.782-1.166-2.782-3.074s1.084-3.114 2.782-3.114c1.671 0 2.687 1.14 2.687 3.008v.411h-4.252v.066c.04 1.047.655 1.71 1.605 1.71.722 0 1.217-.252 1.43-.73h1.137zm-4.172-1.92h3.035c-.026-.941-.601-1.55-1.484-1.55-.882 0-1.484.622-1.551 1.55zm9.214-2.438h2.714c1.177 0 1.872.596 1.872 1.523 0 .61-.428 1.153-1.016 1.259v.093c.776.093 1.284.649 1.284 1.378 0 1.047-.789 1.722-2.113 1.722h-2.741v-5.976zm1.177.914v1.55h1.176c.722 0 1.057-.278 1.057-.782 0-.463-.295-.768-.936-.768h-1.297zm0 2.411v1.75h1.404c.708 0 1.083-.306 1.083-.875 0-.597-.428-.875-1.23-.875h-1.257z" fill="#fff"/></svg>