<svg width="160" height="47" fill="none" xmlns="http://www.w3.org/2000/svg"><path d="M154.074 47H5.926C2.666 47 0 44.356 0 41.125V5.875C0 2.644 2.667 0 5.926 0h148.148C157.333 0 160 2.644 160 5.875v35.25c0 3.231-2.667 5.875-5.926 5.875z" fill="#000"/><path d="M154.074.94c2.75 0 4.978 2.209 4.978 4.935v35.25c0 2.726-2.228 4.935-4.978 4.935H5.926c-2.75 0-4.978-2.209-4.978-4.935V5.875C.948 3.149 3.176.94 5.926.94h148.148zm0-.94H5.926C2.666 0 0 2.644 0 5.875v35.25C0 44.356 2.667 47 5.926 47h148.148c3.259 0 5.926-2.644 5.926-5.875V5.875C160 2.644 157.333 0 154.074 0z" fill="#A6A6A6"/><path d="M80.758 25.557c-2.785 0-5.06 2.103-5.06 4.994 0 2.879 2.275 4.994 5.06 4.994 2.785 0 5.06-2.115 5.06-4.994 0-2.89-2.275-4.994-5.06-4.994zm0 8.025c-1.53 0-2.845-1.245-2.845-3.031 0-1.798 1.316-3.032 2.845-3.032 1.529 0 2.844 1.234 2.844 3.032 0 1.786-1.327 3.031-2.844 3.031zm-11.046-8.025c-2.785 0-5.06 2.103-5.06 4.994 0 2.879 2.275 4.994 5.06 4.994 2.785 0 5.06-2.115 5.06-4.994 0-2.89-2.275-4.994-5.06-4.994zm0 8.025c-1.529 0-2.845-1.245-2.845-3.031 0-1.798 1.316-3.032 2.845-3.032 1.529 0 2.844 1.234 2.844 3.032 0 1.786-1.315 3.031-2.844 3.031zM56.58 27.096v2.115h5.12c-.154 1.187-.557 2.068-1.161 2.668-.747.74-1.909 1.55-3.947 1.55-3.153 0-5.618-2.514-5.618-5.64 0-3.125 2.465-5.64 5.618-5.64 1.695 0 2.94.659 3.852 1.516l1.505-1.492c-1.28-1.21-2.975-2.138-5.369-2.138-4.314 0-7.94 3.478-7.94 7.766 0 4.277 3.626 7.767 7.94 7.767 2.335 0 4.089-.752 5.464-2.174 1.41-1.398 1.849-3.372 1.849-4.958 0-.494-.036-.952-.119-1.328H56.58v-.012zm53.701 1.645c-.415-1.116-1.695-3.184-4.314-3.184-2.596 0-4.753 2.021-4.753 4.994 0 2.796 2.133 4.994 5.002 4.994 2.311 0 3.65-1.399 4.195-2.21l-1.718-1.14c-.569.835-1.351 1.387-2.477 1.387s-1.932-.517-2.442-1.515l6.744-2.762-.237-.564zm-6.874 1.669c-.06-1.927 1.505-2.914 2.631-2.914.877 0 1.624.435 1.872 1.057l-4.503 1.857zm-5.476 4.84h2.216V20.564h-2.216v14.688zm-3.626-8.577h-.084c-.497-.587-1.445-1.116-2.654-1.116-2.525 0-4.836 2.197-4.836 5.017 0 2.797 2.311 4.982 4.836 4.982 1.197 0 2.157-.528 2.655-1.14h.07v.717c0 1.916-1.03 2.938-2.69 2.938-1.35 0-2.192-.964-2.536-1.774l-1.932.799c.557 1.327 2.027 2.949 4.468 2.949 2.596 0 4.788-1.516 4.788-5.205v-8.977h-2.097v.81h.011zm-2.549 6.91c-1.529 0-2.809-1.27-2.809-3.009 0-1.762 1.28-3.043 2.81-3.043 1.504 0 2.69 1.293 2.69 3.043.012 1.74-1.174 3.008-2.69 3.008zm28.907-13.02h-5.298v14.688h2.217v-5.57h3.093c2.453 0 4.859-1.762 4.859-4.559 0-2.796-2.43-4.559-4.871-4.559zm.047 7.074h-3.14v-5.04h3.14a2.558 2.558 0 012.596 2.514c0 1.151-.936 2.526-2.596 2.526zm13.677-2.103c-1.6 0-3.259.705-3.946 2.244l1.967.81c.415-.81 1.197-1.08 2.015-1.08 1.15 0 2.311.681 2.323 1.891v.153c-.403-.223-1.256-.564-2.311-.564-2.122 0-4.267 1.152-4.267 3.302 0 1.962 1.731 3.231 3.674 3.231 1.482 0 2.311-.658 2.821-1.433h.071v1.14h2.133v-5.629c.012-2.608-1.955-4.065-4.48-4.065zm-.272 8.048c-.723 0-1.731-.364-1.731-1.245 0-1.128 1.257-1.563 2.347-1.563.972 0 1.434.212 2.015.494-.166 1.35-1.351 2.314-2.631 2.314zm12.539-7.731l-2.536 6.368h-.071l-2.631-6.368h-2.383l3.947 8.906-2.252 4.947h2.311l6.08-13.853h-2.465zm-19.911 9.4h2.216V20.563h-2.216v14.688z" fill="#fff"/><path d="M12.374 8.859c-.344.364-.545.928-.545 1.645v25.99c0 .73.201 1.293.545 1.646l.083.082L27.14 23.675v-.352L12.457 8.776l-.083.083z" fill="url(#paint0_linear)"/><path d="M32.034 28.529l-4.894-4.853v-.353l4.894-4.852.107.058 5.796 3.267c1.659.928 1.659 2.456 0 3.396l-5.796 3.266-.107.07z" fill="url(#paint1_linear)"/><path d="M32.14 28.467l-5.001-4.97-14.768 14.64c.545.576 1.446.647 2.465.071l17.304-9.74z" fill="url(#paint2_linear)"/><path d="M32.142 18.54L14.826 8.788c-1.02-.576-1.92-.505-2.465.07l14.78 14.64 5-4.958z" fill="url(#paint3_linear)"/><path opacity=".2" d="M32.037 28.352l-17.21 9.694c-.96.54-1.824.505-2.37.011l-.083.083.083.082c.557.493 1.41.529 2.37-.012l17.316-9.752-.106-.106z" fill="#000"/><path opacity=".12" d="M12.374 37.977c-.344-.365-.545-.929-.545-1.645v.176c0 .728.201 1.292.545 1.645l.083-.082-.083-.094zm25.564-12.952l-5.915 3.325.107.106 5.796-3.267c.83-.47 1.244-1.08 1.244-1.692-.06.552-.474 1.105-1.233 1.528z" fill="#000"/><path opacity=".25" d="M14.826 8.953l23.11 13.019c.747.423 1.174.963 1.245 1.527 0-.61-.415-1.233-1.244-1.692L14.826 8.788c-1.66-.928-3.01-.152-3.01 1.728v.176c0-1.892 1.362-2.667 3.01-1.74z" fill="#fff"/><path d="M49.91 16.765h-.878v-2.362h.7c.616-.529.912-1.422.9-2.702V8.223h4.753v6.18h.794v2.362h-.877v-1.492h-5.393v1.492zm1.647-5.053c.011 1.117-.214 2.01-.676 2.703h3.591V9.092h-2.915v2.62zm11.746 2.646c-.7.717-1.564 1.07-2.607 1.07-1.043 0-1.908-.353-2.608-1.07-.699-.717-1.043-1.586-1.043-2.609 0-1.022.344-1.903 1.043-2.608.7-.717 1.565-1.07 2.608-1.07 1.03 0 1.896.353 2.607 1.07.7.717 1.055 1.586 1.055 2.608 0 1.034-.356 1.904-1.055 2.609zm-4.54-.588c.522.53 1.174.788 1.933.788.758 0 1.41-.259 1.932-.787.521-.53.794-1.199.794-2.022 0-.822-.261-1.492-.794-2.02-.522-.53-1.162-.8-1.932-.8-.759 0-1.41.259-1.932.788-.522.54-.782 1.21-.782 2.032 0 .823.26 1.493.782 2.021zm10.194 1.658c-1.043 0-1.92-.353-2.632-1.058-.71-.705-1.066-1.574-1.066-2.632 0-1.045.355-1.927 1.066-2.632.712-.705 1.588-1.057 2.632-1.057 1.066 0 1.943.388 2.607 1.151l-.64.611c-.486-.599-1.138-.893-1.98-.893-.77 0-1.434.259-1.967.776-.533.517-.794 1.198-.794 2.033 0 .834.26 1.515.794 2.032.533.517 1.185.776 1.968.776.853 0 1.576-.34 2.18-1.022l.64.634c-.32.388-.734.693-1.22.917-.486.258-1.02.364-1.588.364zm6.516-.155h-.913v-6.18h-1.99v-.87h4.882v.87h-1.99v6.18h.01zm8.261-7.05l-2.69 5.945c-.367.834-.925 1.257-1.66 1.257-.213 0-.45-.047-.71-.152l.237-.835a.99.99 0 00.474.13c.213 0 .379-.036.497-.118.119-.082.226-.235.32-.446l.261-.564-2.394-5.217h1.079l1.754 4.042h.035l1.719-4.042h1.078zm1.03 7.05v-7.05h5.144v7.05h-.913v-6.18h-3.318v6.18h-.913zm6.768 0v-7.05h.913v3.02H96v-3.02h.913v7.05H96v-3.185h-3.555v3.185h-.913zm12.837-.915c-.699.717-1.565 1.07-2.608 1.07-1.043 0-1.908-.353-2.607-1.07-.7-.717-1.043-1.586-1.043-2.609 0-1.022.344-1.903 1.043-2.608.7-.717 1.564-1.07 2.607-1.07 1.031 0 1.897.353 2.608 1.07.699.717 1.055 1.586 1.055 2.608-.012 1.034-.356 1.904-1.055 2.609zm-4.54-.588c.522.53 1.174.788 1.932.788.759 0 1.411-.259 1.932-.787.522-.53.794-1.199.794-2.022 0-.822-.26-1.492-.794-2.02a2.642 2.642 0 00-1.932-.8c-.758 0-1.41.259-1.931.788-.534.54-.795 1.21-.795 2.032 0 .823.261 1.493.794 2.021zm9.315 1.503v-7.05h2.572c.557 0 1.043.188 1.445.54.415.376.617.834.617 1.375 0 .34-.083.634-.261.881a1.596 1.596 0 01-.699.576v.035c.355.118.64.317.865.611.225.294.344.623.344.999 0 .576-.214 1.057-.64 1.433a2.15 2.15 0 01-1.529.6h-2.714zm.912-4.03h1.66c.343 0 .616-.118.829-.341.214-.224.308-.47.308-.74s-.094-.518-.308-.74a1.016 1.016 0 00-.794-.342h-1.695v2.162zm0 3.16h1.837c.356 0 .64-.117.854-.364.213-.247.332-.505.332-.8 0-.293-.107-.551-.344-.786a1.184 1.184 0 00-.889-.365h-1.802v2.315h.012z" fill="#fff" stroke="#fff" stroke-width=".2" stroke-miterlimit="10"/><defs><linearGradient id="paint0_linear" x1="25.837" y1="10.233" x2="6.118" y2="30.123" gradientUnits="userSpaceOnUse"><stop stop-color="#00A0FF"/><stop offset=".007" stop-color="#00A1FF"/><stop offset=".26" stop-color="#00BEFF"/><stop offset=".512" stop-color="#00D2FF"/><stop offset=".76" stop-color="#00DFFF"/><stop offset="1" stop-color="#00E3FF"/></linearGradient><linearGradient id="paint1_linear" x1="40.099" y1="23.502" x2="11.421" y2="23.502" gradientUnits="userSpaceOnUse"><stop stop-color="#FFE000"/><stop offset=".409" stop-color="#FFBD00"/><stop offset=".775" stop-color="orange"/><stop offset="1" stop-color="#FF9C00"/></linearGradient><linearGradient id="paint2_linear" x1="29.422" y1="26.195" x2="2.682" y2="53.167" gradientUnits="userSpaceOnUse"><stop stop-color="#FF3A44"/><stop offset="1" stop-color="#C31162"/></linearGradient><linearGradient id="paint3_linear" x1="8.648" y1=".206" x2="20.589" y2="12.25" gradientUnits="userSpaceOnUse"><stop stop-color="#32A071"/><stop offset=".069" stop-color="#2DA771"/><stop offset=".476" stop-color="#15CF74"/><stop offset=".801" stop-color="#06E775"/><stop offset="1" stop-color="#00F076"/></linearGradient></defs></svg>